<?xml version="1.0" encoding="UTF-8"?>
<svg id="Layer_2" data-name="Layer 2" xmlns="http://www.w3.org/2000/svg" viewBox="0 0 100 100">
  <defs>
    <style>
      .cls-1 {
        fill: #fff;
      }
    </style>
  </defs>
  <path class="cls-1" d="M37.84,12.62c-6.87,1.85-12.36,7.15-15.4,13.48-3.64,7.57-4.05,16.16.19,23.57,1.98,3.45,4.72,6.43,7.82,8.9s6.59,4.94,10.34,6.33,7.51,1.5,11.28,1.95c3.55.42,6.9.41,10.26-1,3.71-1.56,7.1-4.17,10.18-6.73s5.77-5.89,6.65-9.96c.61-2.82-3.73-4.03-4.34-1.2-.65,2.98-2.4,5.24-4.64,7.24s-4.96,4-7.66,5.55c-2.47,1.42-5.02,2.06-7.87,1.88-3.24-.2-6.63-.57-9.8-1.26-3.38-.73-6.23-2.48-9.05-4.41s-5.52-4.25-7.6-7-3.52-5.76-4.04-9.07c-.57-3.59.14-7.31,1.38-10.69,2.25-6.1,7.08-11.53,13.49-13.25,2.79-.75,1.61-5.09-1.2-4.34h0Z"/>
  <path class="cls-1" d="M79.86,47.69c.53-3.21.82-6.21.34-9.43-.25-1.66-.35-3.87-1.49-5.19-1.44-1.66-3.22-1.12-5.02-.53-6.57,2.16-13.49,3.33-20.21,4.92l2.19,3.76c4.33-5.51,10.33-9.02,15.31-13.85.99-.96.84-2.89-.46-3.53-3.2-1.6-5.6-4.34-8.65-6.15-1.6-.94-3.42-1.3-5.08-2.08-1.06-.49-2.46-1.47-1.98-2.77l-2.77,1.57c1.76.55,3.7.57,5.45-.02,1.88-.63,4-2.08,3.48-4.37-.46-2.01-2.61-2.67-4.29-3.34-1.91-.76-3.89-1.36-5.9-1.8-3.83-.83-7.96-1.27-11.86-.74s-7.29,3.39-6.27,7.52c.24.95,1.2,1.65,2.17,1.65,1.08,0,2.15,0,3.23,0,.46,0,.92,0,1.38,0,.31,0,.62,0,.92,0,.62.06.43-.09-.58-.44l-.31-1.14c.05.44.15-.26-.1.29-.16.35-.34.69-.48,1.06-.32.82-.37,1.61-.19,2.49l1.57-2.77c-.53.19-.7.19-1.23,0-1.14-.42-2.46.47-2.77,1.57-.34,1.25.43,2.35,1.57,2.77s2.44.43,3.62,0,1.84-1.5,1.57-2.77c.08.39-.17.47.08.17.06-.07.15-.26.2-.37.21-.45.45-.91.57-1.39.31-1.26-.16-2.65-1.27-3.36-1.03-.67-2.24-.59-3.42-.59-1.46,0-2.92,0-4.38,0l2.17,1.65c-.7-2.82,7.44-1.98,8.67-1.87,2,.18,3.98.57,5.92,1.11,1.03.28,2.05.61,3.05.98.43.16.86.32,1.28.5.24.1.48.21.72.32.4.26.4.16,0-.3v-1.2c.27-.25.28-.3.03-.14-.12.07-.24.13-.36.17-.28.11-.63.21-.94.25-.74.11-1.42-.02-2.12-.24-1.23-.38-2.36.46-2.77,1.57-.78,2.12.05,4.37,1.51,5.97,1.56,1.72,3.73,2.39,5.85,3.16,3.95,1.43,6.68,5.07,10.42,6.94l-.46-3.53c-4.97,4.83-10.98,8.34-15.31,13.85-1.34,1.71-.16,4.31,2.19,3.76,5.71-1.35,11.47-2.49,17.13-4.04,1.33-.36,2.89-.62,4.12-1.27l.34-.11c-.85-.73-1.19-.83-1.03-.31-.05.3.16.77.22,1.08.15.76.3,1.53.41,2.3.33,2.37.05,4.7-.34,7.04-.2,1.2.31,2.42,1.57,2.77,1.08.3,2.57-.37,2.77-1.57h0Z"/>
  <path class="cls-1" d="M31.74,58.78c.42,11.68,0,23.38-1.28,35.01-.13,1.21,1.13,2.25,2.25,2.25,1.33,0,2.12-1.04,2.25-2.25,1.28-11.62,1.7-23.32,1.28-35.01-.1-2.89-4.61-2.9-4.5,0h0Z"/>
  <path class="cls-1" d="M61.73,64.07c-.38,9.42.85,18.89,3.64,27.89.85,2.76,5.2,1.58,4.34-1.2-2.68-8.66-3.84-17.64-3.48-26.7.12-2.9-4.38-2.89-4.5,0h0Z"/>
  <path class="cls-1" d="M34.75,68.64c4.42,3.77,10.03,4.89,15.69,5.18,4.89.25,10.87.82,14.65-2.96,2.05-2.05-1.13-5.23-3.18-3.18-1.25,1.25-2.98,1.61-4.7,1.72-2.24.14-4.53.03-6.77-.09-4.36-.22-9.07-.94-12.51-3.86-.92-.79-2.27-.91-3.18,0-.81.81-.93,2.39,0,3.18h0Z"/>
</svg>