<?xml version="1.0" encoding="UTF-8"?>
<svg id="Layer_2" data-name="Layer 2" xmlns="http://www.w3.org/2000/svg" viewBox="0 0 100 100">
  <defs>
    <style>
      .cls-1 {
        fill: #fff;
      }
    </style>
  </defs>
  <path class="cls-1" d="M60.33,93.55c0-8,0-16,0-24.01,0-3.9.02-7.8-.03-11.69s-.43-7.38-2.01-10.8l-3.89,2.27c4.05,6.05,9.22,11.17,14.74,15.88,2.66,2.27,5.34,4.54,8.13,6.64s6.3,3.85,9.78,2.55c6.31-2.36,6.44-10.42,4.88-15.85-2.02-7.06-6.46-13.48-10.91-19.22s-9.28-10.82-14.34-15.85c-1.24-1.23-2.49-2.46-3.74-3.68-1.35-1.32-2.66-2.77-4.23-3.83-3.15-2.13-7.24-1.17-10.78-.87-3.75.32-7.73.37-11.26,1.81-3.16,1.29-5.58,3.64-7.41,6.48-1.73,2.68-2.88,5.72-3.96,8.71-1.31,3.63-2.47,7.32-3.46,11.05-4.43,16.61-5.73,34.05-3.78,51.12.14,1.21.94,2.25,2.25,2.25,1.11,0,2.39-1.03,2.25-2.25-1.59-13.84-1.07-27.91,1.67-41.58,1.36-6.81,3.25-13.52,5.65-20.04,1.91-5.18,4.41-10.71,10.25-12.14,3.33-.81,6.89-.84,10.29-1.12,1.47-.12,3.24-.51,4.69-.17s2.53,1.71,3.55,2.7c4.75,4.63,9.49,9.28,13.89,14.24,4.3,4.85,8.26,10,11.48,15.64,1.59,2.79,3.01,5.68,3.79,8.81.59,2.39.86,5.04-.17,7.35-1.2,2.7-3.64,2.8-6.01,1.43-3.01-1.74-5.67-4.29-8.32-6.51-5.57-4.69-10.96-9.72-15.03-15.81-1.63-2.43-5.1-.34-3.89,2.27,1.38,2.99,1.39,6.41,1.41,9.64.02,3.86.02,7.72.02,11.58.01,7.67.01,15.34,0,23.02,0,2.9,4.5,2.9,4.5,0h0Z"/>
  <path class="cls-1" d="M43.01,15.74c-8.55.98-17.3,3.38-23.5,9.72-2.93,3-4.98,6.68-5.95,10.75s-1.19,8.52-1.21,12.74.69,8.85,3.91,11.99c2.08,2.02,5.26-1.16,3.18-3.18-2.21-2.15-2.56-5.3-2.59-8.24-.03-3.57.12-7.29.77-10.8s2.01-6.71,4.41-9.37c2.27-2.52,5.06-4.43,8.12-5.85,4.01-1.85,8.48-2.75,12.85-3.26,1.21-.14,2.25-.93,2.25-2.25,0-1.11-1.03-2.39-2.25-2.25h0Z"/>
  <path class="cls-1" d="M12.29,41.14c-1.72,3.61-3.48,7.28-4.39,11.2-.77,3.29-.93,6.69-.5,10.04.87,6.77,3.98,13.17,8.98,17.86,2.11,1.98,5.3-1.2,3.18-3.18-4.22-3.95-6.96-9.31-7.71-15.05-.88-6.7,1.5-12.65,4.32-18.59.52-1.1.3-2.43-.81-3.08-.98-.57-2.55-.3-3.08.81h0Z"/>
  <path class="cls-1" d="M54.91,32.28c.31.08.63.12.95.15.06,0,.12,0,.17,0,.22-.02.44-.05.66-.09.03,0,.07-.01.1-.02.11-.03.23-.1.32-.13s.22-.08.32-.14.2-.15.27-.21.2-.14.28-.22.16-.2.22-.28.15-.18.21-.27c.01-.02.02-.04.03-.06.06-.12.19-.42.23-.55,0-.01.01-.03.01-.04,0-.02,0-.04.01-.06.02-.1.08-.51.08-.61,0-.01,0-.02,0-.03s0-.02,0-.03c0-.08-.06-.53-.08-.61-.03-.12-.08-.2-.13-.33-.04-.09-.08-.23-.14-.33-.05-.08-.2-.27-.19-.25,0,0-.13-.17-.19-.25-.02-.02-.03-.03-.05-.05-.07-.07-.21-.17-.25-.19-.07-.06-.17-.14-.26-.2-.04-.03-.08-.05-.13-.07-.22-.1-.44-.2-.67-.28-.13-.04-.25-.08-.38-.11-.14-.04-.28-.07-.42-.09-.34-.06-.68-.1-1.02-.13-.41,0-.78.1-1.14.31-.34.2-.61.47-.81.81v.02c-.09.18-.16.36-.24.54,0,.01,0,.02-.01.03-.13.41-.09.59-.04.95s.02.28.17.62c.05.11.08.23.15.33l.35.46h.01s.02.03.03.04l.46.35h.02s.02.02.03.03l.54.23h.02c.11.03.25.04.33.05.19.03.21.04.33.04.1-.01.21-.02.31-.04.11,0,.21-.02.32-.04.29-.07.55-.2.77-.4.24-.16.44-.37.58-.63.16-.26.25-.54.27-.84.07-.3.05-.6-.04-.9l-.23-.54c-.2-.34-.47-.61-.81-.81l-.54-.23c-.4-.11-.8-.11-1.2,0h-.02c.2-.02.4-.05.6-.08-.01,0-.02,0-.04,0l.6.08s-.03,0-.05-.01l.54.23s-.03-.02-.05-.03l.46.35s-.03-.03-.04-.04l.35.46s-.03-.04-.04-.07l.23.54s-.01-.03-.01-.05l.08.6s0-.02,0-.04l-.08.6s0-.03.02-.05l-.23.54v-.02c-.64.37-1.29.74-1.93,1.11.08,0,.16.02.24.03l-.6-.08c.37.05.75.13,1.1.28l-.54-.23c.06.02.11.05.17.09l-.46-.35s.06.05.08.08l-.35-.46s.03.05.04.08l-.23-.54s.01.04.02.06l-.08-.6s0,.05,0,.08l.08-.6s-.01.07-.03.1l.23-.54s-.04.08-.07.11l.35-.46s-.06.07-.1.09l.46-.35s-.06.04-.1.06l.54-.23c-.05.02-.1.03-.15.04l.6-.08c-.09.01-.17,0-.26,0l.6.08c-.11-.01-.21-.04-.32-.07-.3-.09-.6-.11-.9-.04-.3.01-.58.1-.84.27-.26.14-.47.33-.63.58-.2.22-.33.47-.4.77l-.08.6c0,.41.1.78.31,1.14l.35.46c.28.28.61.47.99.58h0Z"/>
  <path class="cls-1" d="M54.94,13.78c-7.88.15-15.02-4.63-23.01-3.44-3.17.47-6.31,1.94-8.35,4.47-2.31,2.87-2.97,6.43-3.45,9.98-.16,1.2.29,2.42,1.57,2.77,1.05.29,2.6-.36,2.77-1.57.38-2.84.71-6.18,2.66-8.44,1.69-1.96,4.37-2.82,6.89-2.93,3.47-.15,6.83.87,10.14,1.8,3.52,1,7.1,1.92,10.79,1.85,2.89-.05,2.9-4.55,0-4.5h0Z"/>
  <path class="cls-1" d="M79.94,62.7c2.9,0,2.9-4.5,0-4.5s-2.9,4.5,0,4.5h0Z"/>
  <path class="cls-1" d="M85.37,64.52c2.9,0,2.9-4.5,0-4.5s-2.9,4.5,0,4.5h0Z"/>
  <path class="cls-1" d="M58.45,14.84c-3.23-4.44-6.55-8.81-9.95-13.13-.55-.69-1.72-.78-2.46-.47-.9.38-1.26,1.13-1.38,2.06-.41,3.11-.5,6.25-.28,9.38.08,1.17.97,2.31,2.25,2.25,1.15-.05,2.34-.99,2.25-2.25-.22-3.13-.13-6.27.28-9.38l-3.84,1.59c3.1,3.94,6.18,8.01,9.24,12.22.69.95,1.99,1.51,3.08.81.94-.61,1.55-2.06.81-3.08h0Z"/>
</svg>