<?xml version="1.0" encoding="UTF-8"?>
<svg id="Layer_2" data-name="Layer 2" xmlns="http://www.w3.org/2000/svg" viewBox="0 0 100 100">
  <defs>
    <style>
      .cls-1 {
        fill: #fff;
      }
    </style>
  </defs>
  <path class="cls-1" d="M9.77,15.62c-.02,7.27-.05,14.55-.07,21.82,0,1.49-.24,3.23.45,4.61.84,1.66,2.53,2.14,4.26,1.98,3.49-.31,6.96-.62,10.46-.71,14.05-.36,28.04,1.34,42.06,1.86,7.94.29,15.9.19,23.79-.85,1.54-.2,2.45-1.27,2.17-2.85-1.72-9.78-3.07-19.62-4.79-29.4-.24-1.35-2.19-2.16-3.31-1.34-6.27,4.58-11.39,10.52-17.65,15.1l2.73.35c-5.79-7.32-12.26-13.7-19.65-19.4-1-.77-2.48-.1-3.08.81-4.04,6.1-9.53,11.08-13.58,17.18l3.53-.46c-6.54-7.36-14.65-13.29-23.66-17.27-1.56-.69-3.31.11-3.39,1.94-.1,2.38-.21,4.76-.31,7.13-.13,2.9,4.37,2.89,4.5,0,.1-2.38.21-4.76.31-7.13l-3.39,1.94c8.7,3.84,16.43,9.46,22.75,16.57,1.02,1.14,2.78.68,3.53-.46,4.04-6.1,9.53-11.08,13.58-17.18l-3.08.81c7.07,5.45,13.21,11.71,18.74,18.7.56.71,2,.89,2.73.35,6.27-4.58,11.39-10.52,17.65-15.1l-3.31-1.34c1.72,9.78,3.07,19.62,4.79,29.4l2.17-2.85c-13.3,1.75-26.72.8-40.05-.1-6.69-.45-13.38-.89-20.08-.95-3.34-.03-6.68.03-10.01.22-1.59.09-3.17.22-4.75.38-.36.04-1.95,0-2.14.21-.02.02.31.49.48.43.08-.03.01-1.24.01-1.35.03-7.68.05-15.36.08-23.04,0-2.9-4.49-2.9-4.5,0h0Z"/>
  <path class="cls-1" d="M19.7,44.8c2.97,7.36,8.27,13.54,15.25,17.38l-.81-3.08c-1.41,2.29-1.77,4.91-1.99,7.54-.25,3.01-.48,6.03-.72,9.04-.48,6-.95,12-1.43,17.99-.1,1.21,1.1,2.25,2.25,2.25,1.3,0,2.15-1.03,2.25-2.25.45-5.67.9-11.34,1.35-17.01.22-2.79.44-5.59.66-8.38.19-2.36.23-4.85,1.51-6.92.63-1.01.24-2.5-.81-3.08-5.89-3.24-10.66-8.43-13.18-14.69-.45-1.13-1.5-1.92-2.77-1.57-1.07.29-2.03,1.63-1.57,2.77h0Z"/>
  <path class="cls-1" d="M75.52,44.9c.58,3.24,1.29,7.89-2.36,9.55-3.43,1.57-7.51,1.25-10.16,4.38-.71.85-.79,1.74-.35,2.73,5.11,11.44,5.45,24.59,12.37,35.3,1.56,2.43,5.46.17,3.89-2.27-6.86-10.63-7.27-23.9-12.37-35.3l-.35,2.73c1.23-1.46,3.06-1.81,4.84-2.25,2.2-.53,4.41-1.13,6.19-2.6,3.99-3.29,3.45-8.91,2.63-13.47-.21-1.2-1.67-1.87-2.77-1.57-1.26.35-1.79,1.57-1.57,2.77h0Z"/>
  <path class="cls-1" d="M23.92,16.89c4.8-.41,9.18.21,13.69,1.91,1.1.42,2.52-.46,2.77-1.57.29-1.28-.39-2.32-1.57-2.77-4.72-1.78-9.86-2.5-14.88-2.08-1.17.1-2.31.96-2.25,2.25.05,1.13.99,2.36,2.25,2.25h0Z"/>
  <path class="cls-1" d="M77.48,13.96c-6.34-.49-12.7-.1-18.95,1.08-1.19.22-1.87,1.67-1.57,2.77.34,1.25,1.57,1.8,2.77,1.57,5.85-1.1,11.82-1.38,17.75-.91,1.21.09,2.25-1.1,2.25-2.25,0-1.3-1.03-2.16-2.25-2.25h0Z"/>
  <path class="cls-1" d="M19.84,27.57c2.9,0,2.9-4.5,0-4.5s-2.9,4.5,0,4.5h0Z"/>
  <path class="cls-1" d="M48.4,22.98c2.9,0,2.9-4.5,0-4.5s-2.9,4.5,0,4.5h0Z"/>
  <path class="cls-1" d="M80.03,28.59c2.9,0,2.9-4.5,0-4.5s-2.9,4.5,0,4.5h0Z"/>
  <path class="cls-1" d="M37.7,63.37c7.48-.28,14.97-.57,22.45-.85,2.89-.11,2.9-4.61,0-4.5-7.48.28-14.97.57-22.45.85-2.89.11-2.9,4.61,0,4.5h0Z"/>
  <path class="cls-1" d="M63.62,64.54c-8.53,2.64-18.44,5.73-26.91,1.22-2.56-1.36-4.83,2.52-2.27,3.89,9.67,5.15,20.55,2.28,30.38-.77,2.76-.85,1.58-5.2-1.2-4.34h0Z"/>
</svg>