<?xml version="1.0" encoding="UTF-8"?>
<svg id="Layer_2" data-name="Layer 2" xmlns="http://www.w3.org/2000/svg" viewBox="0 0 100 100">
  <defs>
    <style>
      .cls-1 {
        fill: #fff;
      }
    </style>
  </defs>
  <path class="cls-1" d="M46.43,25.16c-3.78.1-7.55.88-10.54,3.31s-4.48,6.31-4.94,10.06c-.8,6.48,1.75,13.85,6.9,18.01,3.09,2.49,6.88,3.61,10.82,3.68s8.23-.57,11.84-2.22,6.24-4.53,7.43-8.19c1.29-3.96.2-8.19-1.81-11.71-4.16-7.28-11.65-12.97-19.87-14.74-2.82-.61-4.03,3.73-1.2,4.34,5.95,1.28,11.07,4.72,14.92,9.4,1.95,2.37,3.86,5.38,4.01,8.54.14,2.79-1.21,5.49-3.44,7.16-2.5,1.88-5.84,2.51-8.88,2.8s-6.43.18-9.24-1.35c-4.4-2.4-6.88-7.7-7.12-12.56-.14-2.99.46-6.27,2.36-8.67,2.09-2.65,5.58-3.27,8.76-3.36,2.89-.08,2.9-4.58,0-4.5h0Z"/>
  <path class="cls-1" d="M37.32,54.54c-2.62,3.01-4.85,6.31-6.58,9.9-.71,1.47.12,3.43,1.94,3.39,9.21-.25,18.43-.5,27.64-.74,2.16-.06,4.37.03,6.52-.21s4.04-1.63,3.6-3.94c-.33-1.76-1.89-3.4-2.81-4.92s-1.84-3.01-2.85-4.47c-.69-1-1.97-1.45-3.08-.81-.99.58-1.5,2.07-.81,3.08.94,1.36,1.82,2.76,2.67,4.18.37.61.74,1.21,1.12,1.81.43.67,1.31,1.57,1.41,2.32v-1.2c.12-.6.88-.53-.11-.49-.74.03-1.48.04-2.22.06l-4.44.12c-2.96.08-5.92.16-8.89.24-5.92.16-11.85.32-17.77.48l1.94,3.39c1.56-3.25,3.51-6.28,5.88-8.99,1.9-2.17-1.27-5.37-3.18-3.18h0Z"/>
  <path class="cls-1" d="M36.15,67.16c-.4,9.55-.8,19.11-1.2,28.66-.12,2.9,4.38,2.89,4.5,0,.4-9.55.8-19.11,1.2-28.66.12-2.9-4.38-2.89-4.5,0h0Z"/>
  <path class="cls-1" d="M57.74,67.25c2.2,9.51,4.48,19.17,9.29,27.76,1.42,2.53,5.3.26,3.89-2.27-4.62-8.24-6.72-17.56-8.84-26.68-.65-2.82-4.99-1.63-4.34,1.2h0Z"/>
</svg>