<?xml version="1.0" encoding="UTF-8"?>
<svg id="Layer_2" data-name="Layer 2" xmlns="http://www.w3.org/2000/svg" viewBox="0 0 926.64 513.04">
  <g id="Layer_1-2" data-name="Layer 1">
    <g id="Chess">
      <path d="M749.54,473.57c-1.2,15.77-14.5,28.64-29.63,31.92-17.54,3.8-34.21-3.64-49.61-11.2-5.84-2.87-7.4-11.13-4.31-16.42,3.44-5.88,10.61-7.16,16.42-4.3.11.05.22.11.33.16,7.4,3.64,15.15,7.52,23.41,8.64,6.39.87,11.96-.29,16.23-4.46,3.2-3.12,4.09-5.4,2.58-8.93-2.31-5.39-7.76-9.84-12.56-12.94-4.65-3.01-9.4-4.97-14.57-6.42-1.21-.33-2.44-.64-3.7-.93-7.88-1.81-15.23-5.36-19.4-12.62-6.97-12.16-2.32-28.92,8.06-37.63,13.37-11.22,31.33-9.3,47.34-6.89,6.45.97,9.94,9.09,8.38,14.76-1.86,6.77-8.36,9.35-14.76,8.38-1.2-.18-2.44-.37-3.71-.55-6.37-.91-13.45-1.56-19.2.98-.37.16-1.63.94-2.12,1.22t-.02.01c-.24.26-.97.96-1.33,1.33h-.01c-.04.07-.09.14-.14.22-.41.62-.84,1.32-1.17,2.01.01-.01.02-.02.03-.02,0,.04-.05.21-.19.61-.04.11-.23.86-.37,1.3v.03c-.04.32-.09.67-.1.68.05.89.06,1.27,0,1.15.03.14.07.28.11.42,1.37.62,5.11,1.45,7.39,2.01,2.72.66,5.43,1.49,8.09,2.48,4.49,1.67,8.84,3.8,12.84,6.32,12.96,8.16,26.94,22.06,25.69,38.68Z"/>
      <path d="M567.82,427.76c-2.5,1.06-5.64,2.65-7.86,4.51.01.01.02.02.03.02,1.35.69,2.66,1.16,4.1,1.62,3.76,1.19,7.63,1.97,11.49,2.71,6.7,1.29,13.73,2.93,20.2,5.62,8.58,3.56,16.16,8.93,20.64,17.71,8.81,17.26-.87,34.29-16.28,43.41-15.6,9.23-34.04,11.57-51.67,8.25-6.4-1.21-9.99-8.91-8.38-14.76,1.81-6.61,8.4-9.58,14.76-8.38,1.7.32,3.42.54,5.14.66,6.53.46,13.09-.48,19.35-2.53,5.71-1.86,13.96-5.55,16.31-11.11.68-1.63.47-2.5.05-3.43-.9-1.97-2.68-3.94-4.79-5.49-3-2.19-6.54-3.51-10.29-4.47-2.89-.75-5.91-1.29-8.91-1.86-14.92-2.86-38.25-8.3-37.28-27.9.87-17.62,21.66-27.42,36.61-30.53,15.49-3.23,31.21-2.14,46.81-.48,6.47.69,12,4.94,12,12,0,5.99-5.55,12.69-12,12-2.78-.29-5.61-.61-8.48-.89-13.98-1.39-28.75-2.11-41.55,3.32Z"/>
      <path d="M478.73,480.9c-5.17-.52-10.95-1.08-16.62-2.19-10.5-2.06-20.59-6.04-25.59-15.22-1.48-2.7-2.24-5.65-2.42-8.71-.03-.38-.04-.75-.04-1.13,6.02.02,12.04.03,18.06.05,10.03.03,22.42,1.87,31.49-3.42,22.35-13.04-.07-43.47-15.61-51.8-20.91-11.22-39.24,6.53-49,23.83-1.4,2.48-2.67,5.06-3.78,7.73-8.84,2.41-10.48,14.24-4.91,20.16-.62,9.24,1.14,18.5,6.25,26.69,13.42,21.52,38.97,25.68,62.17,28.01,6.46.65,12-5.98,12-12,0-7.03-5.52-11.35-12-12ZM444.82,426.7c2.11-2.65,4.83-6.31,8.05-7.61,2.1-.85,2.47-.27,4.24.81,2.62,1.58,5.29,4.53,7.41,7.26.4.52.95,1.52,1.57,2.59h-.2c-5.24,0-10.49-.04-15.74-.05-2.52-.01-5.03-.01-7.55-.02.71-1.03,1.46-2.02,2.22-2.98Z"/>
      <path d="M386.87,496.63c-5.34,3.12-13.52,1.49-16.42-4.3-7.12-14.22-14.25-28.45-21.37-42.67-3.57-7.11-7.13-14.22-10.69-21.33-1.69-3.38-3.4-6.77-5.09-10.15-.89.81-1.79,1.63-2.55,2.52-1.69,1.98-3.11,4.15-4.44,6.38-2.98,4.99-5.11,10.2-6.72,15.78-4.04,14.02-4.45,28.61-4.94,43.09-.21,6.1-4.43,10.89-10.41,11.79-5.36.8-12.17-2.8-13.16-8.6-9.66-56.35-8.33-113.43-6.57-170.34.47-15.43,24.47-15.45,24,0-.23,7.49-.47,14.99-.67,22.5-.66,23.4-1.06,46.88-.33,70.29,5.04-7.94,11.49-14.92,19.51-18.74,1.98-.94,3.94-1.53,5.87-1.78,7.89-1.09,15.02,3.29,19.1,10.93,4.67,8.76,8.91,17.79,13.36,26.66,8.61,17.19,17.21,34.37,25.82,51.55,2.92,5.82,1.6,12.97-4.3,16.42Z"/>
      <path d="M199.14,279.53c-22.84-.61-47.45,4.32-62.71,22.8s-18.59,41.29-18.54,63.62c.1,45.4,13.9,96.69,54.22,122.61,20.37,13.09,47.02,18.25,69.93,8.92,6-2.44,10.24-7.99,8.38-14.76-1.56-5.68-8.72-10.84-14.76-8.38-15.59,6.35-31.54,4.61-46.32-3.46-16-8.73-27.16-22.95-34.8-39.46-8.03-17.34-11.43-36.96-12.38-55.93-.86-17.22-.31-35.96,7.95-50.89,9.87-17.86,29.66-21.58,49.03-21.06,15.45.41,15.44-23.59,0-24h0Z"/>
    </g>
    <g id="Sketchy">
      <path d="M908.85,353.47c-9.98,18.83-26.32,35.43-47.51,40.73-24.25,6.06-48.72-2.29-71.12-11.11-6.06-2.38-10.26-7.95-8.39-14.76,1.45-5.26,7.48-9.84,13.1-8.84.56.09,1.12.25,1.67.46,19.91,7.83,45.56,18.48,66.05,8.41,15.11-7.41,24.92-22.95,30.68-38.68,7.14-19.5,9.38-40,9.4-60.66.01-14.45-.93-28.88-2.04-43.3-1.75,2.01-3.64,3.87-5.7,5.55-14.15,11.56-31.62,10.45-47.91,4.16-12.95-5-25.18-12.41-33.44-23.69-.84-1.15-1.65-2.34-2.41-3.58-8.44-13.76-9.55-30.52-2.56-45.03,2.83-5.86,11.17-7.37,16.42-4.3,5.9,3.45,7.12,10.58,4.3,16.42-4.82,10.01,1.71,22.65,10.59,29.52,4.67,3.62,10.19,6.38,15.74,8.36,5.99,2.13,13.84,4.89,19.86,2.39,10.44-4.33,15.93-19.99,18.96-30.56,1.19-4.14,2.1-8.32,2.76-12.53-.24-11.04-.02-22.08,1.03-33.14,1.46-15.35,22.82-15.52,24,0,.88,11.56.67,23.34-1,34.88.37,14.49,1.52,28.98,2.67,43.42,3.62,45.46,6.98,94.16-15.15,135.88Z"/>
      <path d="M768.04,256.93c-5.7,1.56-13.82-1.97-14.76-8.39-2.48-16.78-4.96-33.57-7.44-50.35-.28-1.94-.56-3.88-.84-5.82-.89-6.22-1.77-12.45-2.77-18.65-.37.23-.68.44-.83.55-.83.6-1.65,1.24-2.46,1.92-8.58,7.1-15.97,17.78-21.17,27.66-5.65,10.72-9.35,22.86-10.49,34.81-.58,6.11-4.16,10.85-10.4,11.79-5.22.78-12.36-2.78-13.17-8.6-.15-1.06-.29-2.13-.43-3.19-8.62-64.57-7.43-129.62-5.84-194.61.38-15.44,24.38-15.45,24,0-.25,10.03-.5,20.07-.72,30.12-.78,36.44-1.08,72.98,1.1,109.35,3.42-5.33,7.28-10.4,11.42-15.16,4.84-5.55,10.51-11.6,16.99-15.43.67-.4,1.36-.78,2.05-1.13,8.75-4.4,19.9-5.48,27.23,2.33,6.62,7.06,6.55,17.82,7.87,26.82,3.02,20.4,6.03,40.81,9.04,61.21.95,6.44-1.5,12.88-8.38,14.77Z"/>
      <path d="M610.48,139.78c-13.65-1.52-28.56-1.9-40.88,5.17-14.3,8.2-19.42,24.33-18.61,40.02.82,15.98,4.09,33.1,14.75,45.56,10.1,11.82,26.8,17.48,41.49,21,16.61,3.98,35.41,4.52,49.96-5.78,5.28-3.74,7.78-10.48,4.31-16.42-3.05-5.22-11.1-8.07-16.42-4.31-10.63,7.53-23.45,5.73-35.99,2.17-13.12-3.72-26.29-8.45-30.69-22.56-2.1-6.72-3.16-13.54-3.43-20.44-.24-5.89-.08-11.77,3.5-15.99,2.49-2.94,7.54-4.59,11.4-5.04,6.82-.81,13.83-.13,20.62.62s12-6.03,12-12c0-7.08-5.53-11.28-12-12h0Z"/>
      <path d="M532.05,131.91c-1.91-6.94-8.31-9.25-14.76-8.38,2.36-.32-2.43.3-2.86.35-1.53.19-3.06.37-4.59.54-3.53.4-7.07.78-10.61,1.13-3.1.31-6.21.59-9.32.86-.05-27.04.25-54.08.94-81.11.4-15.45-23.6-15.44-24,0-.71,27.61-1.01,55.22-.94,82.83-9.81.54-19.65.82-29.46.48-15.45-.53-15.43,23.47,0,24,9.84.34,19.73.2,29.62-.27.33,30.59,1.12,61.18,2.41,91.76.27,6.48,5.32,12,12,12,6.29,0,12.27-5.49,12-12-1.32-31.15-2.12-62.32-2.44-93.49,11.27-1.07,22.5-2.44,33.61-3.94,6.43-.86,9.93-9.12,8.38-14.76Z"/>
      <path d="M386.17,221.05c-12.44,3.36-26.74-.31-36.6-9.78-8.81-8.47-13.22-20.82-13.16-32.88,2.13,0,4.27.01,6.4.01,13.27.02,28.5,2.4,39.29-6.99,9.42-8.19,15.79-23.01,12.82-35.42-3-12.52-14-19.8-26.26-21.21-23.69-2.73-42.88,16.72-51.09,37.08-.33.82-.64,1.64-.94,2.48-4.94-.01-9.89-.02-14.83-.03-15.45-.03-15.47,23.97,0,24,3.56.01,7.12.02,10.68.02-.08,14.53,4.05,29.16,12.43,40.84,15.14,21.09,42.3,31.87,67.64,25.02,14.9-4.02,8.58-27.18-6.38-23.14ZM369,139.09c-.11-.05-.22-.1-.33-.15.15.06.25.11.33.15ZM359.59,139.32c3-.94,4-1.24,7.64-.72-1.57-.2,2.63.95,1.8.51.62.29,1.22.69,1.8,1.03-1.36-.81.51.9.22.23.13.24.63,1.29.67,1.96.04.92-.28,1.98-.59,3.02-.86,2.8-2.87,6.57-4.82,8.1-2.29,1.8-7.44.98-10.8.97-4.24,0-8.49,0-12.73-.03,3.91-7.01,9.57-12.81,16.81-15.07Z"/>
      <path d="M270.38,236.39c-12.93-18.7-28.27-35.49-45.68-49.86,4.91-2.9,9.13-7.05,11.63-12.06,5-10.01,2.32-20.3-1.36-30.23-3.4-9.16-7.39-18.14-12.04-26.74-4.97-9.18-13.17-18.17-24.77-15.29-8.13,2.03-14.62,9.2-19.86,15.54.19-34.82.7-69.63,1.52-104.44.36-15.45-23.64-15.45-24,0-1.19,50.83-1.73,101.67-1.59,152.51-4.05,17.73-3.86,36.28.8,53.88,3.45,13.02,23.73,10.44,23.57-3.19-.13-11.16-.23-22.32-.29-33.48.75.81,1.63,1.52,2.64,2.11,27.17,15.88,50.79,37.45,68.7,63.36,3.68,5.33,10.53,7.76,16.42,4.31,5.27-3.09,8.01-11.06,4.31-16.42ZM178.86,166.11c3.38-11.83,9.16-22.98,17.23-32.35,1.13-1.31,2.3-2.59,3.5-3.84.28-.29,1.07-.93,1.89-1.63.13.24.24.42.3.53,4.16,7.55,7.74,15.39,10.67,23.5,1.08,3,3.18,7.37,2.86,10.31-.19,1.72-1.36,2.4-3,3.34-6.08,3.45-15.47-.27-22.11-2.76-3.91-1.47-8.35.07-11.34,2.9Z"/>
      <path d="M114.42,22.32c-11.32-9.18-24.23-15.9-38.46-19.3s-29.79-4.89-43.03.38c-14.12,5.63-20.55,18.25-22.86,32.59-2.16,13.39-3.8,26.82-1.89,40.33s8.37,26.04,19.16,34.69c11.34,9.1,24.41,15.35,35.07,25.4,9.55,9,18.08,19.75,23.32,31.88,2.54,5.9,3.99,12.22,3.53,18.64-.13,1.8.05.47-.34,2.24-.3,1.35-.64,2.68-1.06,4-.82,2.57-1.52,3.98-3.13,6.67-13.49,22.48-45.86,25.15-66.67,11.08-5.37-3.63-13.3-1.03-16.42,4.31-3.46,5.91-1.08,12.78,4.31,16.42,22.57,15.25,55.27,16.25,78.41,1.64,11.71-7.39,20.8-18.16,25.72-31.12,5.16-13.59,3.66-28.44-1.79-41.69-11.38-27.65-33.31-46.85-57.98-62.49-10.71-6.79-17.19-14.11-18.78-26.6-1.27-10.03.3-22.73,2.43-33.12,1.15-5.61,2.09-10.05,6.88-12.29,5.31-2.49,12.71-2.01,18.81-1.5,13.39,1.12,27.34,6.32,37.82,14.81,5.03,4.08,12.05,4.92,16.97,0,4.22-4.22,5.06-12.87,0-16.97h0Z"/>
    </g>
  </g>
</svg>