<?xml version="1.0" encoding="UTF-8"?>
<svg id="Layer_2" data-name="Layer 2" xmlns="http://www.w3.org/2000/svg" viewBox="0 0 100 100">
  <defs>
    <style>
      .cls-1 {
        fill: #fff;
      }
    </style>
  </defs>
  <path class="cls-1" d="M25.31,22.38c-2.02,7.36-5.14,14.31-9.27,20.72-1.18,1.83.76,3.57,2.54,3.31,8.83-1.3,17.93-.84,26.82-.88s18.22-.09,27.33-.13c5.22-.03,10.43-.05,15.65-.08,1.68,0,2.84-1.91,1.94-3.39-4.32-7.11-9.58-13.64-15.64-19.34-2.11-1.99-5.3,1.19-3.18,3.18,5.79,5.46,10.81,11.63,14.94,18.43l1.94-3.39c-18.52.09-37.04.13-55.57.27-5.17.04-10.31.23-15.43.98l2.54,3.31c4.33-6.71,7.62-14.09,9.73-21.79.77-2.8-3.57-3.99-4.34-1.2h0Z"/>
  <path class="cls-1" d="M49.17,27.22c.52-4.42.64-8.99.03-13.41-.15-1.12-.69-2.06-1.78-2.51s-2.02-.11-3.04.2c-.96.29-1.95.52-2.94.63-.52.06-1.05.09-1.58.1-.3,0-.6,0-.9,0-.57-.04-.6-.03-.1.03l.81.81c-.15-.27.3-1.62.45-2.05l-2.77,1.57c1.73.7,3.5,1.15,5.35,1.39,1.65.22,4.05.6,5.58-.25,1.92-1.07,1.63-3.07,1.33-4.9-.34-2.06-.67-4.12-1.01-6.18l-2.77,2.77c1.38.4,2.75.8,4.13,1.19l-.99-3.76c-2.02,2.17-2.78,5.07-2.07,7.95.21.85,1.23,1.78,2.17,1.65,3.83-.51,7.63-.29,11.36.73l-1.34-3.31c-.57,1.05-1.27,2.6-2.45,3.1-1.37.58-3.04-.74-4.1-1.44-2.02-1.33-4,1.21-3.08,3.08.7,1.43-.09,3.87-.3,5.32-.34,2.31-.68,4.62-1.03,6.93-.18,1.2.3,2.42,1.57,2.77,1.06.29,2.59-.36,2.77-1.57.41-2.79.83-5.57,1.24-8.36.38-2.55.82-4.95-.36-7.36l-3.08,3.08c2.29,1.51,5.04,2.86,7.81,1.81,2.33-.88,3.75-2.98,4.9-5.09.69-1.27.09-2.91-1.34-3.31-4.09-1.12-8.35-1.45-12.55-.89l2.17,1.65c-.32-1.29,0-2.59.91-3.57,1.15-1.24.67-3.28-.99-3.76-1.38-.4-2.75-.8-4.13-1.19-1.79-.52-3.03,1.15-2.77,2.77.21,1.27.41,2.54.62,3.81.1.63.21,1.27.31,1.9.05.32.1.63.15.95.02.28.06.27.12-.03l.81-.81c.28-.02.28-.02,0,0-.15,0-.29.01-.44.01-.36,0-.73,0-1.09,0-.67-.03-1.34-.08-2.01-.19-1.44-.24-2.84-.67-4.19-1.22-1.19-.48-2.4.54-2.77,1.57-.95,2.65-.98,6.56,2.59,6.87,1.45.13,2.92,0,4.35-.22.75-.11,1.49-.25,2.22-.44.5-.13,1.22-.47,1.62-.42l-1.14-.31.24.16-.81-.81c-.14-.21-.15-.08-.02.39.03.31.06.62.08.94.04.47.07.94.09,1.41.06,1.09.08,2.19.08,3.28-.01,2.19-.16,4.38-.42,6.55-.14,1.21,1.14,2.25,2.25,2.25,1.33,0,2.11-1.04,2.25-2.25h0Z"/>
  <path class="cls-1" d="M72.56,20.39c-5.32-.52-10.68-.46-15.98.19-1.21.15-2.25.93-2.25,2.25,0,1.1,1.04,2.4,2.25,2.25,5.31-.65,10.66-.71,15.98-.19,1.21.12,2.25-1.12,2.25-2.25,0-1.32-1.04-2.13-2.25-2.25h0Z"/>
  <path class="cls-1" d="M42.24,21c-4.88-.74-9.74-.7-14.61.12-1.16.2-1.92,1.69-1.57,2.77.41,1.26,1.52,1.78,2.77,1.57.26-.04.51-.09.77-.12.17-.03.34-.05.51-.08-.13.02-.11.02.04,0,.51-.06,1.03-.12,1.55-.16,1.08-.09,2.15-.15,3.23-.15s2.07.02,3.11.09,2.22.19,3.01.31c1.16.17,2.48-.29,2.77-1.57.24-1.07-.33-2.58-1.57-2.77h0Z"/>
  <path class="cls-1" d="M26.08,46.55l7.03,11.11c.56.88,1.32,1.8,1.7,2.78.33.83.11,1.88.03,2.74-.2,2.22-.41,4.45-.61,6.67-.82,8.97-1.65,17.95-2.47,26.92-.11,1.21,1.11,2.25,2.25,2.25,1.31,0,2.14-1.03,2.25-2.25.85-9.3,1.71-18.61,2.56-27.91.21-2.27.48-4.55.62-6.82s-.82-4.08-2.05-6.03c-2.47-3.91-4.95-7.82-7.42-11.73-1.55-2.44-5.44-.19-3.89,2.27h0Z"/>
  <path class="cls-1" d="M73.04,45.36c-1.87,3.94-3.92,7.83-5.59,11.86s.62,8.13,2.13,11.95c3.22,8.16,6.56,16.27,10,24.34.48,1.12,2.12,1.37,3.08.81,1.16-.68,1.29-1.96.81-3.08-3.15-7.41-6.21-14.87-9.18-22.35-.75-1.9-1.51-3.8-2.24-5.7-.64-1.67-1.05-2.91-.3-4.62,1.62-3.68,3.46-7.29,5.18-10.93.52-1.1.3-2.43-.81-3.08-.98-.57-2.56-.3-3.08.81h0Z"/>
  <path class="cls-1" d="M79.93,33.28c-18.8-1.26-37.57,1.11-56.37.75-2.9-.06-2.9,4.44,0,4.5,18.8.36,37.57-2.01,56.37-.75,2.89.19,2.88-4.31,0-4.5h0Z"/>
  <path class="cls-1" d="M37.94,62.47c9.75.52,19.51.61,29.27.29,2.89-.09,2.9-4.6,0-4.5-9.76.32-19.52.22-29.27-.29-2.89-.15-2.89,4.35,0,4.5h0Z"/>
  <path class="cls-1" d="M69.57,67.15c-10.03.38-20.07.22-30.08-.49-2.89-.2-2.88,4.3,0,4.5,10.01.71,20.05.87,30.08.49,2.89-.11,2.9-4.61,0-4.5h0Z"/>
</svg>