<?xml version="1.0" encoding="UTF-8"?>
<svg id="Layer_2" data-name="Layer 2" xmlns="http://www.w3.org/2000/svg" viewBox="0 0 100 100">
  <defs>
    <style>
      .cls-1 {
        fill: #fff;
      }
    </style>
  </defs>
  <path class="cls-1" d="M11.7,10.74c-.87,7.54-1.51,15.11-2.1,22.67-.14,1.79-.27,3.59-.4,5.38s-.55,3.98.45,5.69c1.79,3.07,6.16,1.95,9.05,1.88,7.51-.17,14.76,1.11,22.18,2.04,7.94.99,15.93,1.57,23.92,1.92,8.77.39,17.56.49,26.34.53,1.23,0,2.22-1.04,2.25-2.25.14-6.58.33-13.16.29-19.75-.02-3.54.11-7.17-.23-10.69-.18-1.9-.82-3.73-2.54-4.76-1.54-.93-3.5-1.23-5.26-1.39-4.31-.37-8.65,1.09-12.88-.18-1.79-.54-3.03,1.16-2.77,2.77.67,4.08.97,8.22.95,12.35l2.25-2.25c-3.6-.16-7.2-.31-10.81-.47l2.25,2.25-.7-7.65c-.2-2.19-.08-4.79-.98-6.83-1.05-2.37-3.34-2.65-5.64-2.87-2.58-.25-5.19-.27-7.77-.04-1.16.1-2.32.35-3.49.43-.98.07-1.89-.13-2.8.38-1.9,1.07-1.94,3.51-1.82,5.43.1,1.66.3,3.31.3,4.98,0,.25-.02.5-.02.74,0,.59.06-.17-.02.18s-.25.47,0,.11c-.1.15.29-.26.29-.26-.03.01-.14.06-.16.09.41-.57.29.11.03-.05-.02-.01-.2.04-.23.05-.24.06.44-.03,0,0-.7.04-1.39.06-2.09.06-2.68,0-5.27-.14-7.84-.94l1.65,2.17c.29-4.07.31-8.14.09-12.21-.07-1.27-.98-2.17-2.25-2.25-5.82-.35-11.61-.05-17.37.8-1.2.18-1.87,1.7-1.57,2.77.35,1.29,1.56,1.75,2.77,1.57,5.35-.79,10.78-.96,16.17-.64l-2.25-2.25c.23,4.07.2,8.14-.09,12.21-.07,1,.75,1.89,1.65,2.17,3.53,1.1,7.54,1.38,11.22,1.03,2.52-.24,4.17-1.56,4.45-4.15.13-1.2.02-2.42-.06-3.61-.05-.8-.12-1.59-.17-2.39-.03-.42-.05-.85-.05-1.28,0-.14.17-.93.1-1.04l-.98.8.28.02c.16.04.43.03.58.03.46-.01.92-.12,1.37-.18,1.24-.18,2.49-.31,3.74-.37,2.34-.12,4.72-.07,7.05.22.09.01,1.02.22.75,0,.19.16.22.7.25.93.18,1.22.23,2.48.34,3.71.25,2.71.49,5.42.74,8.13.11,1.25.94,2.19,2.25,2.25,3.6.16,7.2.31,10.81.47,1.22.05,2.24-1.07,2.25-2.25.03-4.55-.37-9.07-1.11-13.55l-2.77,2.77c4.63,1.39,9.17-.04,13.86.32.92.07,1.98.22,2.83.61.66.3.67.75.73,1.45.17,2.19.12,4.43.16,6.62.12,7.81-.09,15.62-.25,23.43l2.25-2.25c-15.02-.07-30.07-.32-45.02-1.86-7.2-.74-14.35-2.22-21.58-2.56-3.52-.17-6.99.07-10.51.14.05,0-.74.06-.53,0-.61.15,0-.39.02.13-.03-.56,0-1.11.04-1.67.14-1.92.28-3.84.43-5.76.61-8.02,1.28-16.04,2.2-24.03.14-1.21-1.13-2.25-2.25-2.25-1.33,0-2.11,1.04-2.25,2.25h0Z"/>
  <path class="cls-1" d="M22.74,47.05c-.35,14.64-.23,29.29.36,43.92.12,2.89,4.62,2.9,4.5,0-.59-14.63-.71-29.28-.36-43.92.07-2.9-4.43-2.9-4.5,0h0Z"/>
  <path class="cls-1" d="M71.42,51.34c-.81,12.37.16,24.86,2.97,36.94.66,2.82,5,1.63,4.34-1.2-2.72-11.7-3.59-23.76-2.81-35.74.19-2.89-4.31-2.88-4.5,0h0Z"/>
  <path class="cls-1" d="M27.08,58.31c16.45.83,32.9,1.67,49.35,2.5,2.89.15,2.89-4.35,0-4.5-16.45-.83-32.9-1.67-49.35-2.5-2.89-.15-2.89,4.35,0,4.5h0Z"/>
</svg>